#!OML:ASF X:\für Bonn\!DataBase\2005_08_10_Bjorn_Final\c3d\bjorn.ASF
:FULLY-SPECIFIED
:DEGREES
96
root 3.42882 19.2337 2.39287 -186.698 -12.9865 171.447
lowerback 7.35744 -2.21057 -2.77969
upperback 10.0224 -4.24589 -4.00946
thorax 6.25337 -2.71964 -2.63332
lowerneck -10.0323 1.84407 -1.09326
upperneck 12.5422 3.04689 -4.37585
head 5.48954 1.01975 -0.967995
rclavicle -3.10601e-014 -2.16675e-014
rhumerus -25.8908 -21.7588 -89.6181
rradius 31.7464
rwrist 5.92324
rhand -15.1414 19.0465
rfingers 7.12502
rthumb 11.0284 -10.6437
lclavicle -3.10601e-014 -2.16675e-014
lhumerus -26.4518 -34.8843 79.0449
lradius 45.3599
lwrist 0.730991
lhand -47.7227 -16.8426
lfingers 7.12502
lthumb -20.402 12.1056
rfemur -3.62746 -1.98658 11.8559
rtibia 30.6199
rfoot -16.8014 7.68434
rtoes -16.8718
lfemur -27.9175 40.4111 13.6622
ltibia 146.736
lfoot -22.4199 -28.2078
ltoes -20.0949
97
root 3.46636 19.1844 2.4055 -188.366 -13.5433 171.572
lowerback 9.19066 -1.86266 -3.25929
upperback 10.5179 -4.06797 -4.259
thorax 5.78721 -2.74197 -2.54789
lowerneck -10.3046 1.50276 -0.993896
upperneck 12.7594 2.49906 -3.58176
head 5.58291 0.819914 -0.774925
rclavicle 4.55217e-014 6.55989e-015
rhumerus -25.9518 -21.7163 -89.8458
rradius 32.0842
rwrist 6.33242
rhand -15.1388 19.1435
rfingers 7.12502
rthumb 11.0309 -10.5466
lclavicle 4.55217e-014 6.55989e-015
lhumerus -24.5431 -35.952 77.0459
lradius 46.7684
lwrist 1.22904
lhand -48.2184 -16.927
lfingers 7.12502
lthumb -20.8783 11.9695
rfemur -1.88448 -2.08232 12.0029
rtibia 30.8418
rfoot -17.0625 7.46824
rtoes -16.7718
lfemur -34.9793 38.9273 6.32998
ltibia 146.502
lfoot -19.9673 -27.0669
ltoes -17.9706
98
root 3.50255 19.1227 2.41732 -190.031 -14.0766 171.718
lowerback 11.0281 -1.47866 -3.72814
upperback 11.0188 -3.87813 -4.46985
thorax 5.33956 -2.76341 -2.43969
lowerneck -10.4819 1.14775 -1.03462
upperneck 12.8316 1.92746 -2.67795
head 5.61649 0.615024 -0.527523
rclavicle -9.44227e-015 -5.1684e-015
rhumerus -26.0814 -21.5056 -90.0199
rradius 32.5024
rwrist 6.76955
rhand -15.2269 19.3311
rfingers 7.12502
rthumb 10.9459 -10.3636
lclavicle -9.44227e-015 -5.1684e-015
lhumerus -22.4603 -37.0888 74.8772
lradius 48.3425
lwrist 1.89883
lhand -49.0567 -17.6004
lfingers 7.12502
lthumb -21.6834 11.2053
rfemur -0.348247 -2.17753 12.1535
rtibia 31.4441
rfoot -17.5108 7.32383
rtoes -16.6733
lfemur -41.8003 36.2777 -0.799729
ltibia 145.933
lfoot -18.0554 -25.5212
ltoes -16.8372
99
root 3.53688 19.0533 2.42645 -191.692 -14.5694 171.893
lowerback 12.8674 -1.05415 -4.15015
upperback 11.5238 -3.66697 -4.65898
thorax 4.90847 -2.77677 -2.34828
lowerneck -10.6383 0.782961 -1.12512
upperneck 12.8234 1.33549 -1.70769
head 5.62637 0.404037 -0.253212
rclavicle -1.11319e-014 -2.66371e-014
rhumerus -26.2745 -21.0796 -90.1687
rradius 33.0046
rwrist 7.15911
rhand -15.471 19.5748
rfingers 7.12502
rthumb 10.7104 -10.1322
lclavicle -1.11319e-014 -2.66371e-014
lhumerus -20.1382 -38.1311 72.5435
lradius 50.016
lwrist 2.67255
lhand -50.216 -18.9653
lfingers 7.12502
lthumb -22.7964 9.70771
rfemur 1.09386 -2.29555 12.3101
rtibia 32.1919
rfoot -18.007 7.23184
rtoes -16.4969
lfemur -47.9922 32.8544 -7.13892
ltibia 145.061
lfoot -17.0574 -23.5296
ltoes -15.8614
100
root 3.57 18.9363 2.43722 -193.359 -15.0663 172.064
lowerback 14.7526 -0.606284 -4.56156
upperback 12.0217 -3.46287 -4.82791
thorax 4.46137 -2.79858 -2.25031
lowerneck -10.7308 0.423615 -1.27317
upperneck 12.7227 0.744675 -0.669383
head 5.60274 0.195688 0.0513327
rclavicle 4.77083e-014 -2.94201e-014
rhumerus -26.6067 -20.3646 -90.2646
rradius 33.7626
rwrist 7.42112
rhand -15.6926 19.695
rfingers 7.12502
rthumb 10.4967 -10.0229
lclavicle 4.77083e-014 -2.94201e-014
lhumerus -17.5678 -38.8982 70.011
lradius 51.8481
lwrist 3.09163
lhand -51.005 -19.8225
lfingers 7.12502
lthumb -23.5534 8.75524
rfemur 2.41524 -2.47323 12.4242
rtibia 33.1113
rfoot -18.5388 7.20039
rtoes -16.3196
lfemur -53.8686 28.9443 -12.5751
ltibia 144.219
lfoot -16.5746 -21.1531
ltoes -16.4957
101
root 3.6032 18.8556 2.44128 -195.016 -15.6083 172.247
lowerback 16.6657 -0.141722 -4.94861
upperback 12.5331 -3.27474 -4.97963
thorax 4.03246 -2.83439 -2.15821
lowerneck -10.7891 0.0682504 -1.42165
upperneck 12.4985 0.149938 0.426006
head 5.54222 -0.0114463 0.373082
rclavicle -9.54166e-015 -3.26007e-014
rhumerus -26.9988 -19.5175 -90.3237
rradius 34.7275
rwrist 7.62325
rhand -15.8699 19.6721
rfingers 7.12502
rthumb 10.3257 -10.0544
lclavicle -9.54166e-015 -3.26007e-014
lhumerus -14.6497 -39.2861 67.2192
lradius 53.9128
lwrist 3.1073
lhand -51.1739 -19.4726
lfingers 7.12502
lthumb -23.7154 9.08419
rfemur 3.79985 -2.74461 12.5036
rtibia 33.9976
rfoot -19.1061 7.24181
rtoes -16.1772
lfemur -59.0794 24.5894 -17.2602
ltibia 142.807
lfoot -15.7276 -18.1492
ltoes -16.0282
102
root 3.63839 18.7763 2.43825 -196.629 -16.1709 172.436
lowerback 18.5242 0.348478 -5.33584
upperback 13.0612 -3.08333 -5.10928
thorax 3.67178 -2.87614 -2.0596
lowerneck -10.8081 -0.290443 -1.56213
upperneck 12.1252 -0.456069 1.57288
head 5.43691 -0.223278 0.708198
rclavicle 8.94531e-015 -8.90555e-014
rhumerus -27.3934 -18.6336 -90.3275
rradius 35.7445
rwrist 7.80375
rhand -15.9972 19.699
rfingers 7.12502
rthumb 10.2028 -10.0336
lclavicle 8.94531e-015 -8.90555e-014
lhumerus -11.4263 -39.4437 64.2097
lradius 56.2628
lwrist 3.76917
lhand -51.1127 -19.3787
lfingers 7.12502
lthumb -23.6567 9.1857
rfemur 5.15205 -3.01488 12.5814
rtibia 34.8969
rfoot -19.6867 7.2707
rtoes -15.8152
lfemur -63.6405 20.5774 -20.8741
ltibia 141.058
lfoot -15.4962 -14.94
ltoes -16.8316
103
root 3.67554 18.6894 2.42516 -198.206 -16.7024 172.672
lowerback 20.255 0.883108 -5.71707
upperback 13.6347 -2.85591 -5.18624
thorax 3.44915 -2.91149 -1.93553
lowerneck -10.8379 -0.654895 -1.70434
upperneck 11.6407 -1.07553 2.79186
head 5.30835 -0.442868 1.06444
rclavicle 5.52621e-014 9.30312e-014
rhumerus -27.7538 -17.6131 -90.3101
rradius 36.89
rwrist 7.97146
rhand -16.1443 19.6167
rfingers 7.12502
rthumb 10.061 -10.1228
lclavicle 5.52621e-014 9.30312e-014
lhumerus -7.90885 -39.1927 61.0762
lradius 58.831
lwrist 4.8264
lhand -50.7977 -19.5809
lfingers 7.12502
lthumb -23.3545 9.02227
rfemur 6.54377 -3.26017 12.7315
rtibia 35.6234
rfoot -20.2242 7.21037
rtoes -15.6674
lfemur -67.646 17.4402 -23.4322
ltibia 139.048
lfoot -15.6127 -12.1416
ltoes -19.2185
104
root 3.71065 18.6035 2.40194 -199.747 -17.1901 172.94
lowerback 21.8463 1.4468 -6.04621
upperback 14.2483 -2.59976 -5.22709
thorax 3.3599 -2.94089 -1.82792
lowerneck -10.8214 -1.00728 -1.93731
upperneck 11.0197 -1.67022 4.10128
head 5.14008 -0.657507 1.46488
rclavicle -7.15625e-015 3.10104e-014
rhumerus -28.1563 -16.3996 -90.2498
rradius 38.2008
rwrist 7.91544
rhand -16.2485 19.5589
rfingers 7.12502
rthumb 9.96042 -10.1854
lclavicle -7.15625e-015 3.10104e-014
lhumerus -4.16824 -38.6911 57.7886
lradius 61.6485
lwrist 6.17143
lhand -50.3677 -19.881
lfingers 7.12502
lthumb -22.942 8.77395
rfemur 7.91467 -3.46864 12.926
rtibia 36.3326
rfoot -20.7556 7.16531
rtoes -15.2313
lfemur -71.4091 14.8525 -25.2332
ltibia 136.89
lfoot -15.5774 -10.1463
ltoes -20.8348
105
root 3.74117 18.5212 2.3704 -201.28 -17.5978 173.268
lowerback 23.3298 2.0425 -6.26725
upperback 14.8859 -2.29574 -5.2205
thorax 3.36695 -2.94948 -1.75617
lowerneck -10.8039 -1.37154 -2.26791
upperneck 10.3402 -2.26812 5.47512
head 4.96632 -0.884162 1.90043
rclavicle -3.65764e-014 -9.06458e-014
rhumerus -28.6974 -15.1783 -90.0935
rradius 39.6689
rwrist 7.66446
rhand -16.4021 19.6423
rfingers 7.12502
rthumb 9.81222 -10.1091
lclavicle -3.65764e-014 -9.06458e-014
lhumerus -0.298308 -37.9673 54.3978
lradius 64.6945
lwrist 7.61579
lhand -49.8638 -19.9393
lfingers 7.12502
lthumb -22.4584 8.77493
rfemur 9.27434 -3.70347 13.1631
rtibia 37.0498
rfoot -21.3162 7.15859
rtoes -14.9633
lfemur -74.7183 12.6478 -26.5009
ltibia 134.436
lfoot -15.2371 -8.70738
ltoes -20.2742
106
root 3.76836 18.435 2.33146 -202.833 -17.8942 173.645
lowerback 24.736 2.66149 -6.39925
upperback 15.5154 -1.9515 -5.16211
thorax 3.41915 -2.93842 -1.69968
lowerneck -10.7104 -1.72396 -2.63746
upperneck 9.57115 -2.82968 6.81123
head 4.76241 -1.10937 2.3331
rclavicle 2.98177e-014 -1.11319e-014
rhumerus -29.3604 -13.8036 -89.8008
rradius 41.2315
rwrist 7.10312
rhand -16.6285 19.7674
rfingers 7.12502
rthumb 9.59381 -9.99418
lclavicle 2.98177e-014 -1.11319e-014
lhumerus 3.49593 -36.9437 51.1103
lradius 67.869
lwrist 8.96155
lhand -49.7018 -20.404
lfingers 7.12502
lthumb -22.3029 8.32893
rfemur 10.6143 -3.98818 13.4092
rtibia 37.8295
rfoot -21.9127 7.28938
rtoes -14.8219
lfemur -77.7681 10.9911 -27.6168
ltibia 132.014
lfoot -15.3078 -6.67755
ltoes -20.3815
